<?xml version="1.0" encoding="utf-8"?>
<!-- Generator: Adobe Illustrator 17.0.0, SVG Export Plug-In . SVG Version: 6.00 Build 0)  -->
<!DOCTYPE svg PUBLIC "-//W3C//DTD SVG 1.1//EN" "http://www.w3.org/Graphics/SVG/1.1/DTD/svg11.dtd">
<svg version="1.1" id="Warstwa_1" xmlns="http://www.w3.org/2000/svg" xmlns:xlink="http://www.w3.org/1999/xlink" x="0px" y="0px"
	 width="35px" height="35px" viewBox="0 0 35 35" enable-background="new 0 0 35 35" xml:space="preserve">
<path opacity="0.3" fill="#FFFFFF" d="M17.529,0C7.849,0,0,7.849,0,17.529c0,9.683,7.849,17.529,17.529,17.529
	c9.682,0,17.529-7.847,17.529-17.529C35.059,7.849,27.211,0,17.529,0z M21.285,17.536h-2.457c0,3.924,0,8.758,0,8.758h-3.64
	c0,0,0-4.785,0-8.758h-1.731v-3.094h1.731v-2.003c0-1.434,0.68-3.674,3.673-3.674l2.696,0.011v3.004c0,0-1.639,0-1.957,0
	c-0.319,0-0.772,0.158-0.772,0.843v1.819h2.775L21.285,17.536z"/>
</svg>
