<?xml version="1.0" encoding="utf-8"?>
<!-- Generator: Adobe Illustrator 17.0.0, SVG Export Plug-In . SVG Version: 6.00 Build 0)  -->
<!DOCTYPE svg PUBLIC "-//W3C//DTD SVG 1.1//EN" "http://www.w3.org/Graphics/SVG/1.1/DTD/svg11.dtd">
<svg version="1.1" id="Warstwa_1" xmlns="http://www.w3.org/2000/svg" xmlns:xlink="http://www.w3.org/1999/xlink" x="0px" y="0px"
	 width="35px" height="35px" viewBox="0 0 35 35" enable-background="new 0 0 35 35" xml:space="preserve">
<g opacity="0.3">
	<path fill="#FFFFFF" d="M14.038,9.652c-1.399-0.041-2.338,1.365-2.095,3.202c0.241,1.838,1.571,3.122,2.971,3.165
		c1.399,0.041,2.203-1.142,1.962-2.98C16.634,11.203,15.436,9.695,14.038,9.652z"/>
	<path fill="#FFFFFF" d="M14.626,19.78c-2.086-0.024-3.852,1.316-3.852,2.871c0,1.585,1.506,2.905,3.591,2.905
		c2.932,0,3.953-1.239,3.953-2.825c0-0.191-0.024-0.378-0.067-0.559c-0.23-0.897-1.142-1.389-2.275-2.176
		C15.566,19.862,15.112,19.784,14.626,19.78z"/>
	<path fill="#FFFFFF" d="M17.615,0C7.887,0,0,7.887,0,17.615c0,9.73,7.887,17.615,17.615,17.615c9.729,0,17.615-7.885,17.615-17.615
		C35.229,7.887,27.343,0,17.615,0z M18.961,12.962c0,1.148-0.635,2.073-1.533,2.774c-0.877,0.686-1.043,0.972-1.043,1.555
		c0,0.497,1.047,1.236,1.529,1.598c1.676,1.258,2.016,2.049,2.016,3.621c0,1.963-2.115,3.913-5.553,3.913
		c-3.017,0-5.563-1.226-5.563-3.189c0-1.991,2.111-4.068,5.128-4.068c0.329,0,0.63-0.009,0.942-0.009
		c-0.413-0.4-0.746-0.746-0.746-1.352c0-0.361,0.114-0.705,0.275-1.013c-0.163,0.011-0.331,0.021-0.503,0.021
		c-2.478,0-3.921-1.742-3.921-3.924c0-2.137,2.196-4.081,4.83-4.081c1.358,0,5.192,0,5.192,0l-1.16,1.219h-1.363
		C18.45,10.577,18.961,11.71,18.961,12.962z M26.416,12.641H24.02v2.393h-1.198v-2.393h-2.394v-1.198h2.394V9.048h1.198v2.395h2.395
		V12.641z"/>
</g>
</svg>
