<?xml version="1.0" encoding="utf-8"?>
<!-- Generator: Adobe Illustrator 17.0.0, SVG Export Plug-In . SVG Version: 6.00 Build 0)  -->
<!DOCTYPE svg PUBLIC "-//W3C//DTD SVG 1.1//EN" "http://www.w3.org/Graphics/SVG/1.1/DTD/svg11.dtd">
<svg version="1.1" id="Warstwa_1" xmlns="http://www.w3.org/2000/svg" xmlns:xlink="http://www.w3.org/1999/xlink" x="0px" y="0px"
	 width="44.516px" height="117.146px" viewBox="0 0 44.516 117.146" enable-background="new 0 0 44.516 117.146"
	 xml:space="preserve">
<path opacity="0.5" fill="#FFFFFF" d="M22.466,22.486c-11.322,0-20.5,9.178-20.5,20.5v27c0,11.322,9.178,20.5,20.5,20.5
	s20.5-9.178,20.5-20.5v-27C42.966,31.664,33.788,22.486,22.466,22.486z M25.966,49.486c0,4-7,4-7,0c0-6,0-18,0-18c0-4,7-4,7,0
	C25.966,37.486,25.966,43.486,25.966,49.486z"/>
<g opacity="0.5">
	<g>
		<path fill="#FFFFFF" d="M12.729,13.433c3.367-3.367,6.735-6.735,10.102-10.102c-0.471,0-0.943,0-1.414,0
			c3.367,3.367,6.735,6.735,10.102,10.102c0.913,0.913,2.327-0.501,1.414-1.414c-3.367-3.367-6.735-6.735-10.102-10.102
			c-0.385-0.385-1.029-0.385-1.414,0c-3.367,3.367-6.735,6.735-10.102,10.102C10.402,12.932,11.816,14.346,12.729,13.433
			L12.729,13.433z"/>
	</g>
</g>
<g opacity="0.5">
	<g>
		<path fill="#FFFFFF" d="M11.315,104.331c3.367,3.367,6.735,6.735,10.102,10.102c0.385,0.385,1.029,0.385,1.414,0
			c3.367-3.367,6.735-6.735,10.102-10.102c0.913-0.913-0.501-2.327-1.414-1.414c-3.367,3.367-6.735,6.735-10.102,10.102
			c0.471,0,0.943,0,1.414,0c-3.367-3.367-6.735-6.735-10.102-10.102C11.816,102.005,10.402,103.419,11.315,104.331L11.315,104.331z"
			/>
	</g>
</g>
</svg>
