<?xml version="1.0" encoding="utf-8"?>
<!-- Generator: Adobe Illustrator 17.0.0, SVG Export Plug-In . SVG Version: 6.00 Build 0)  -->
<!DOCTYPE svg PUBLIC "-//W3C//DTD SVG 1.1//EN" "http://www.w3.org/Graphics/SVG/1.1/DTD/svg11.dtd">
<svg version="1.1" id="Warstwa_1" xmlns="http://www.w3.org/2000/svg" xmlns:xlink="http://www.w3.org/1999/xlink" x="0px" y="0px"
	 width="35px" height="35px" viewBox="0 0 35 35" enable-background="new 0 0 35 35" xml:space="preserve">
<path opacity="0.3" fill="#FFFFFF" d="M17.375,0C7.78,0,0,7.78,0,17.375c0,9.598,7.78,17.375,17.375,17.375
	c9.595,0,17.375-7.778,17.375-17.375C34.751,7.78,26.971,0,17.375,0z M24.285,13.833c0.007,0.153,0.011,0.305,0.011,0.46
	c0,4.711-3.586,10.143-10.143,10.143c-2.014,0-3.887-0.59-5.465-1.601c0.28,0.032,0.563,0.049,0.851,0.049
	c1.671,0,3.207-0.568,4.427-1.525c-1.559-0.03-2.876-1.061-3.329-2.475c0.217,0.04,0.44,0.064,0.67,0.064
	c0.326,0,0.641-0.045,0.939-0.125c-1.629-0.329-2.859-1.769-2.859-3.496c0-0.015,0-0.03,0-0.045
	c0.481,0.267,1.031,0.426,1.615,0.445c-0.957-0.638-1.586-1.731-1.586-2.967c0-0.653,0.176-1.266,0.483-1.792
	c1.757,2.157,4.385,3.576,7.347,3.724c-0.06-0.261-0.092-0.532-0.092-0.812c0-1.968,1.596-3.563,3.565-3.563
	c1.024,0,1.951,0.433,2.601,1.124c0.811-0.159,1.575-0.456,2.264-0.865c-0.267,0.834-0.831,1.531-1.567,1.973
	c0.721-0.085,1.408-0.278,2.047-0.56C25.586,12.703,24.981,13.331,24.285,13.833z"/>
</svg>
